<svg xmlns="http://www.w3.org/2000/svg" width="213" height="214.048" class="w-[55px] h-[55px] text-blue"><g data-name="guvenlekirala logo dark"><path d="M169.1 213H43.9A43.894 43.894 0 0 1 0 169.1V43.9A43.894 43.894 0 0 1 43.9 0h125.2A43.894 43.894 0 0 1 213 43.9v125.2a43.958 43.958 0 0 1-43.9 43.9Z" data-name="Path 25875"/><g fill="#fff" data-name="Group 9145"><path d="m112.3 31.8 63.1 36.4 5.1 3v39.1l-20.3-11.7V82.8l-52.9-30.6-53 30.6v76.7h105.9v-37.9l20.3 11.7v46.5H34V71.2l5.1-3 63.1-36.4 5.1-2.9Z" data-name="Path 25878"/><path d="m112.3 93.9 28.8 16.6 34.3 19.8 5.1 3v46.5H34v-46.5l5.1-3 15.2-8.7v37.9h105.9v-14.6l-52.9-30.5-33.1 19v-23.3l28-16.2 5.1-2.9Z" data-name="Path 25879"/></g></g></svg>