<svg xmlns="http://www.w3.org/2000/svg" xmlns:xlink="http://www.w3.org/1999/xlink" version="1.1" width="1000" height="1000" viewBox="0 0 1000 1000" xml:space="preserve">
<desc>Created with Fabric.js 3.5.0</desc>
<defs>
</defs>
<rect x="0" y="0" width="100%" height="100%" fill="rgba(255,255,255,0)"/>
<g transform="matrix(4.2471 0 0 4.2471 499.9961 499.9961)" id="1629">
<g style="" vector-effect="non-scaling-stroke">
		<g transform="matrix(1 0 0 1 0 -0.524)">
<path style="stroke: none; stroke-width: 1; stroke-dasharray: none; stroke-linecap: butt; stroke-dashoffset: 0; stroke-linejoin: miter; stroke-miterlimit: 4; is-custom-font: none; font-file-url: none; fill: rgb(0,106,255); fill-rule: nonzero; opacity: 1;" transform=" translate(-106.5, -106.5)" d="M 169.1 213 H 43.9 A 43.894 43.894 0 0 1 0 169.1 V 43.9 A 43.894 43.894 0 0 1 43.9 0 h 125.2 A 43.894 43.894 0 0 1 213 43.9 v 125.2 a 43.958 43.958 0 0 1 -43.9 43.9 Z" stroke-linecap="round"/>
</g>
		<g transform="matrix(1 0 0 1 0.75 -2.674)">
<path style="stroke: none; stroke-width: 1; stroke-dasharray: none; stroke-linecap: butt; stroke-dashoffset: 0; stroke-linejoin: miter; stroke-miterlimit: 4; is-custom-font: none; font-file-url: none; fill: rgb(255,255,255); fill-rule: nonzero; opacity: 1;" transform=" translate(-107.25, -104.35)" d="m 112.3 31.8 l 63.1 36.4 l 5.1 3 v 39.1 l -20.3 -11.7 V 82.8 l -52.9 -30.6 l -53 30.6 v 76.7 h 105.9 v -37.9 l 20.3 11.7 v 46.5 H 34 V 71.2 l 5.1 -3 l 63.1 -36.4 l 5.1 -2.9 Z" stroke-linecap="round"/>
</g>
		<g transform="matrix(1 0 0 1 0.75 28.376)">
<path style="stroke: none; stroke-width: 1; stroke-dasharray: none; stroke-linecap: butt; stroke-dashoffset: 0; stroke-linejoin: miter; stroke-miterlimit: 4; is-custom-font: none; font-file-url: none; fill: rgb(255,255,255); fill-rule: nonzero; opacity: 1;" transform=" translate(-107.25, -135.4)" d="m 112.3 93.9 l 28.8 16.6 l 34.3 19.8 l 5.1 3 v 46.5 H 34 v -46.5 l 5.1 -3 l 15.2 -8.7 v 37.9 h 105.9 v -14.6 l -52.9 -30.5 l -33.1 19 v -23.3 l 28 -16.2 l 5.1 -2.9 Z" stroke-linecap="round"/>
</g>
</g>
</g>
</svg>